<svg width="40" height="40" viewBox="0 0 40 40" fill="none" xmlns="http://www.w3.org/2000/svg">
<mask id="mask0_30_381" style="mask-type:luminance" maskUnits="userSpaceOnUse" x="0" y="0" width="40" height="40">
<path d="M0 0H40V40H0V0Z" fill="white"/>
</mask>
<g mask="url(#mask0_30_381)">
<path d="M22.3438 9.76562C22.3438 11.06 21.2944 12.1094 20 12.1094C18.7056 12.1094 17.6562 11.06 17.6562 9.76562C17.6562 8.47125 18.7056 7.42187 20 7.42187C21.2944 7.42187 22.3438 8.47125 22.3438 9.76562Z" stroke="#E55C7F" stroke-miterlimit="10" stroke-linecap="round" stroke-linejoin="round"/>
<path d="M14.5312 5.54687V1.17187H9.84375V9.29687" stroke="#E55C7F" stroke-miterlimit="10" stroke-linecap="round" stroke-linejoin="round"/>
<path d="M35.625 13.6719L20 1.17187L4.375 13.6719" stroke="#E55C7F" stroke-miterlimit="10" stroke-linecap="round" stroke-linejoin="round"/>
<path d="M1.17188 37.2656C3.52445 37.2656 3.52445 38.8281 5.87703 38.8281C8.22961 38.8281 8.22961 37.2656 10.5822 37.2656C12.9348 37.2656 12.9348 38.8281 15.2874 38.8281C17.6406 38.8281 17.6406 37.2656 19.9938 37.2656C22.3458 37.2656 22.3458 38.8281 24.6977 38.8281C27.0517 38.8281 27.0517 37.2656 29.4057 37.2656C31.7613 37.2656 31.7613 38.8281 34.1169 38.8281C36.4726 38.8281 36.4726 37.2656 38.8281 37.2656" stroke="#E55C7F" stroke-miterlimit="10" stroke-linecap="round" stroke-linejoin="round"/>
<path d="M1.17188 31.7969C3.52445 31.7969 3.52445 33.3594 5.87703 33.3594C8.22961 33.3594 8.22961 31.7969 10.5822 31.7969C12.9348 31.7969 12.9348 33.3594 15.2874 33.3594C17.6406 33.3594 17.6406 31.7969 19.9938 31.7969C22.3458 31.7969 22.3458 33.3594 24.6977 33.3594C27.0517 33.3594 27.0517 31.7969 29.4057 31.7969C31.7613 31.7969 31.7613 33.3594 34.1169 33.3594C36.4726 33.3594 36.4726 31.7969 38.8281 31.7969" stroke="#E55C7F" stroke-miterlimit="10" stroke-linecap="round" stroke-linejoin="round"/>
<path d="M23.9062 27.8213V18.3594H16.0938V27.8182" stroke="#E55C7F" stroke-miterlimit="10" stroke-linecap="round" stroke-linejoin="round"/>
<path d="M31.7188 27.0812V10.5468L20 1.1718L8.28125 10.5468V27.0751" stroke="#E55C7F" stroke-miterlimit="10" stroke-linecap="round" stroke-linejoin="round"/>
<path d="M1.17188 26.3281C3.52445 26.3281 3.52445 27.8906 5.87703 27.8906C8.22961 27.8906 8.22961 26.3281 10.5822 26.3281C12.9348 26.3281 12.9348 27.8906 15.2874 27.8906C17.6406 27.8906 17.6406 26.3281 19.9938 26.3281C22.3458 26.3281 22.3458 27.8906 24.6977 27.8906C27.0517 27.8906 27.0517 26.3281 29.4057 26.3281C31.7613 26.3281 31.7613 27.8906 34.1169 27.8906C36.4726 27.8906 36.4726 26.3281 38.8281 26.3281" stroke="#E55C7F" stroke-miterlimit="10" stroke-linecap="round" stroke-linejoin="round"/>
</g>
</svg>
