<svg width="40" height="40" viewBox="0 0 40 40" fill="none" xmlns="http://www.w3.org/2000/svg">
<mask id="mask0_30_410" style="mask-type:luminance" maskUnits="userSpaceOnUse" x="0" y="0" width="40" height="40">
<path d="M0 0H40V40H0V0Z" fill="white"/>
</mask>
<g mask="url(#mask0_30_410)">
<path d="M1.17188 38.8281H38.8281V10.6797L20 1.30469L1.17188 10.6797V38.8281Z" stroke="#E55C7F" stroke-miterlimit="10"/>
<path d="M1.17188 15.9161L20 6.54113L38.8281 15.9161" stroke="#E55C7F" stroke-miterlimit="10"/>
<path d="M15.7859 20.6049C15.7859 18.6395 14.1927 17.0463 12.2273 17.0463C10.262 17.0463 8.66882 18.6395 8.66882 20.6049C8.66882 22.5702 10.262 24.1634 12.2273 24.1634C14.1927 24.1634 15.7859 22.5702 15.7859 20.6049Z" stroke="#E55C7F" stroke-miterlimit="10"/>
<path d="M34.1406 38.8281V30.5314C34.1406 27.0145 31.2896 24.1634 27.7727 24.1634C25.5048 24.1634 23.5137 25.349 22.3856 27.1341" stroke="#E55C7F" stroke-miterlimit="10"/>
<path d="M17.6144 27.1341C16.4863 25.3489 14.4952 24.1634 12.2273 24.1634C8.71039 24.1634 5.85938 27.0144 5.85938 30.5313V38.8281" stroke="#E55C7F" stroke-miterlimit="10"/>
<path d="M24.2141 20.6049C24.2141 18.6395 25.8073 17.0463 27.7727 17.0463C29.738 17.0463 31.3312 18.6395 31.3312 20.6049C31.3312 22.5702 29.738 24.1634 27.7727 24.1634C25.8073 24.1634 24.2141 22.5702 24.2141 20.6049Z" stroke="#E55C7F" stroke-miterlimit="10"/>
<path d="M16.4414 29.7821C16.4414 27.8168 18.0347 26.2235 20 26.2235C21.9653 26.2235 23.5586 27.8168 23.5586 29.7821C23.5586 31.7474 21.9653 33.3407 20 33.3407C18.0347 33.3407 16.4414 31.7474 16.4414 29.7821Z" stroke="#E55C7F" stroke-miterlimit="10"/>
<path d="M13.6924 38.8281C14.1213 35.7279 16.7818 33.3408 20 33.3408C23.2181 33.3408 25.8788 35.7279 26.3076 38.8281" stroke="#E55C7F" stroke-miterlimit="10"/>
</g>
</svg>
