<svg width="38" height="40" viewBox="0 0 38 40" fill="none" xmlns="http://www.w3.org/2000/svg">
<path d="M21.545 11.8153L24.7972 15.0675C24.9498 15.2201 25.197 15.2201 25.3496 15.0675L28.9434 11.4738C29.0166 11.4005 29.1159 11.3594 29.2196 11.3594H31.5132C31.6168 11.3594 31.7162 11.3182 31.7895 11.245L34.2245 8.80994" stroke="#E55C7F" stroke-miterlimit="10" stroke-linecap="round" stroke-linejoin="round"/>
<path d="M5.70883 6.30127L11.0094 11.6018C11.162 11.7544 11.4092 11.7544 11.5618 11.6018L14.9066 8.25697C14.9799 8.18369 15.0792 8.1426 15.1829 8.1426H18.3883" stroke="#E55C7F" stroke-miterlimit="10" stroke-linecap="round" stroke-linejoin="round"/>
<path d="M10.5332 32.4434L8.8207 30.7309C8.66812 30.5783 8.66812 30.3311 8.8207 30.1785L10.5332 28.466C10.6858 28.3134 10.933 28.3134 11.0856 28.466L12.7981 30.1785C12.9507 30.3311 12.9507 30.5783 12.7981 30.7309L11.0856 32.4434C10.933 32.596 10.6857 32.596 10.5332 32.4434Z" stroke="#E55C7F" stroke-miterlimit="10" stroke-linecap="round" stroke-linejoin="round"/>
<path d="M29.7763 27.2873L25.7727 26.3489C25.4556 26.2746 25.3634 25.8677 25.6173 25.6639L28.1509 23.6309C28.3455 23.4746 28.6348 23.5386 28.7455 23.7623L30.2155 26.7337C30.362 27.0298 30.0978 27.3627 29.7763 27.2873Z" stroke="#E55C7F" stroke-miterlimit="10" stroke-linecap="round" stroke-linejoin="round"/>
<path d="M2.55203 27.0168V37.7656C2.55203 38.6286 3.25156 39.3281 4.11453 39.3281H35.8188C36.6817 39.3281 37.3813 38.6286 37.3813 37.7656V2.0625C37.3813 1.19953 36.6817 0.5 35.8188 0.5H4.11453C3.25156 0.5 2.55203 1.19953 2.55203 2.0625V4.28398" stroke="#E55C7F" stroke-miterlimit="10" stroke-linecap="round" stroke-linejoin="round"/>
<path d="M2.55203 7.01831V11.0189" stroke="#E55C7F" stroke-miterlimit="10" stroke-linecap="round" stroke-linejoin="round"/>
<path d="M7.76054 21.4924H18.3883V36.1714H21.545V21.4924H34.2245V18.3357H21.545V3.65674H18.3883V13.8474" stroke="#E55C7F" stroke-miterlimit="10" stroke-linecap="round" stroke-linejoin="round"/>
<path d="M18.3883 16.5817V18.3356H5.70883" stroke="#E55C7F" stroke-miterlimit="10" stroke-linecap="round" stroke-linejoin="round"/>
<path d="M34.2244 27.2274L31.761 29.6909C31.6877 29.7641 31.5884 29.8052 31.4848 29.8052H27.7047C27.6011 29.8052 27.5017 29.8464 27.4284 29.9196L26.9032 30.4448" stroke="#E55C7F" stroke-miterlimit="10" stroke-linecap="round" stroke-linejoin="round"/>
<path d="M24.9698 32.3784L21.545 35.8031" stroke="#E55C7F" stroke-miterlimit="10" stroke-linecap="round" stroke-linejoin="round"/>
<path d="M5.70883 27.0168V35.7808C5.70883 35.9965 5.88375 36.1714 6.09946 36.1714H33.8338C34.0495 36.1714 34.2245 35.9965 34.2245 35.7808V4.04736C34.2245 3.83166 34.0495 3.65674 33.8338 3.65674H6.09946C5.88375 3.65674 5.70883 3.83166 5.70883 4.04736V11.7587" stroke="#E55C7F" stroke-miterlimit="10" stroke-linecap="round" stroke-linejoin="round"/>
<path d="M5.70883 14.5533V20.6506" stroke="#E55C7F" stroke-miterlimit="10" stroke-linecap="round" stroke-linejoin="round"/>
<path d="M3.39766 20.6506H6.75695C6.86055 20.6506 6.95992 20.6918 7.0332 20.765L9.87828 23.6101C10.0309 23.7627 10.0309 24.0099 9.87828 24.1625L7.13844 26.9024C7.06516 26.9756 6.96586 27.0167 6.86219 27.0167H0.890625C0.674922 27.0167 0.5 26.8418 0.5 26.6261V23.5483C0.5 23.4447 0.541172 23.3453 0.614375 23.272L3.12141 20.765C3.19469 20.6918 3.29406 20.6506 3.39766 20.6506Z" stroke="#E55C7F" stroke-miterlimit="10" stroke-linecap="round" stroke-linejoin="round"/>
<path d="M2.47633 11.0012L7.6232 12.2075C7.94023 12.2818 8.0325 12.6887 7.77851 12.8925L4.52148 15.5062C4.32679 15.6624 4.03758 15.5984 3.92687 15.3748L2.03711 11.5547C1.89062 11.2587 2.15484 10.9258 2.47633 11.0012Z" stroke="#E55C7F" stroke-miterlimit="10" stroke-linecap="round" stroke-linejoin="round"/>
<path d="M2.55203 12.5956V21.3345" stroke="#E55C7F" stroke-miterlimit="10" stroke-linejoin="round"/>
</svg>
