<svg width="18" height="12" viewBox="0 0 18 12" fill="none" xmlns="http://www.w3.org/2000/svg">
<g clip-path="url(#clip0_30_294)">
<path d="M11.254 7.64066C11.873 7.64066 12.381 8.1336 12.381 8.73437C12.381 9.33514 11.873 9.82808 11.254 9.82808H9.57144H10.6984C11.3175 9.82808 11.8254 10.321 11.8254 10.9218C11.8254 11.5226 11.3175 12.0155 10.6984 12.0155H5.07938C3.84128 12.0155 2.82541 11.0296 2.82541 9.82808V4.9449C2.82541 4.5906 3.00001 4.2517 3.3016 4.05145L8.85715 0.246568C9.33334 -0.138541 10.0476 -0.0615193 10.4286 0.416016C10.8254 0.878147 10.746 1.57134 10.254 1.94105L8.53969 3.26582H16.873C17.4921 3.26582 18 3.75876 18 4.35953C18 4.9603 17.4921 5.45324 16.873 5.45324H9.55557H11.8095C12.4286 5.45324 12.9365 5.94618 12.9365 6.54695C12.9365 7.14772 12.4286 7.64066 11.8095 7.64066H10.127" fill="#FCC359"/>
<path d="M0.555556 3.28103H2.80952C3.12698 3.28103 3.36508 3.49669 3.36508 3.75856V11.5224C3.36508 11.7842 3.11111 12.0153 2.80952 12.0153H0.555556C0.238095 12.0153 0 11.7996 0 11.5378V3.75856C0 3.49669 0.253968 3.26562 0.555556 3.26562V3.28103Z" fill="#621E5A"/>
</g>
<defs>
<clipPath id="clip0_30_294">
<rect width="18" height="12" fill="white"/>
</clipPath>
</defs>
</svg>
